<mxfile host="Electron" modified="2023-12-04T06:43:53.524Z" agent="Mozilla/5.0 (Windows NT 10.0; Win64; x64) AppleWebKit/537.36 (KHTML, like Gecko) draw.io/22.1.2 Chrome/114.0.5735.289 Electron/25.9.4 Safari/537.36" etag="dZFiTjWGhxSvqf7IG7gf" version="22.1.2" type="device">
  <diagram name="第 1 页" id="Sz4y7XV0d_JCJWOFTGZO">
    <mxGraphModel dx="1350" dy="798" grid="1" gridSize="10" guides="1" tooltips="1" connect="1" arrows="1" fold="1" page="1" pageScale="1" pageWidth="4681" pageHeight="3300" math="0" shadow="0">
      <root>
        <mxCell id="0" />
        <mxCell id="1" parent="0" />
        <mxCell id="uhsKY76aZJEP6ARtSAPS-1" value="" style="rounded=0;whiteSpace=wrap;html=1;" parent="1" vertex="1">
          <mxGeometry x="1420" y="1450" width="140" height="310" as="geometry" />
        </mxCell>
        <mxCell id="uhsKY76aZJEP6ARtSAPS-2" value="" style="endArrow=classic;html=1;fontSize=10;exitX=0.75;exitY=1;exitDx=0;exitDy=0;entryX=0.94;entryY=0.616;entryDx=0;entryDy=0;entryPerimeter=0;" parent="1" source="uhsKY76aZJEP6ARtSAPS-41" target="uhsKY76aZJEP6ARtSAPS-72" edge="1">
          <mxGeometry width="50" height="50" relative="1" as="geometry">
            <mxPoint x="1289.36" y="1573" as="sourcePoint" />
            <mxPoint x="805" y="1830" as="targetPoint" />
            <Array as="points">
              <mxPoint x="1300" y="1830" />
            </Array>
          </mxGeometry>
        </mxCell>
        <mxCell id="uhsKY76aZJEP6ARtSAPS-3" value="" style="endArrow=classic;html=1;fontSize=10;exitX=0.664;exitY=1.071;exitDx=0;exitDy=0;exitPerimeter=0;" parent="1" source="uhsKY76aZJEP6ARtSAPS-31" edge="1">
          <mxGeometry width="50" height="50" relative="1" as="geometry">
            <mxPoint x="1310" y="1780" as="sourcePoint" />
            <mxPoint x="795" y="1820" as="targetPoint" />
            <Array as="points">
              <mxPoint x="1290" y="1820" />
            </Array>
          </mxGeometry>
        </mxCell>
        <mxCell id="uhsKY76aZJEP6ARtSAPS-4" value="Disk" style="shape=cylinder3;whiteSpace=wrap;html=1;boundedLbl=1;backgroundOutline=1;size=15;" parent="1" vertex="1">
          <mxGeometry x="330" y="1640" width="60" height="80" as="geometry" />
        </mxCell>
        <mxCell id="uhsKY76aZJEP6ARtSAPS-5" value="" style="rounded=0;whiteSpace=wrap;html=1;" parent="1" vertex="1">
          <mxGeometry x="610" y="1500" width="10" height="80" as="geometry" />
        </mxCell>
        <mxCell id="uhsKY76aZJEP6ARtSAPS-6" value="" style="rounded=0;whiteSpace=wrap;html=1;" parent="1" vertex="1">
          <mxGeometry x="620" y="1500" width="10" height="80" as="geometry" />
        </mxCell>
        <mxCell id="uhsKY76aZJEP6ARtSAPS-7" value="" style="rounded=0;whiteSpace=wrap;html=1;" parent="1" vertex="1">
          <mxGeometry x="630" y="1500" width="10" height="80" as="geometry" />
        </mxCell>
        <mxCell id="uhsKY76aZJEP6ARtSAPS-8" value="" style="rounded=0;whiteSpace=wrap;html=1;" parent="1" vertex="1">
          <mxGeometry x="640" y="1500" width="10" height="80" as="geometry" />
        </mxCell>
        <mxCell id="uhsKY76aZJEP6ARtSAPS-9" value="" style="rounded=0;whiteSpace=wrap;html=1;" parent="1" vertex="1">
          <mxGeometry x="650" y="1500" width="10" height="80" as="geometry" />
        </mxCell>
        <mxCell id="uhsKY76aZJEP6ARtSAPS-10" value="" style="rounded=0;whiteSpace=wrap;html=1;" parent="1" vertex="1">
          <mxGeometry x="660" y="1500" width="10" height="80" as="geometry" />
        </mxCell>
        <mxCell id="uhsKY76aZJEP6ARtSAPS-11" value="" style="rounded=0;whiteSpace=wrap;html=1;" parent="1" vertex="1">
          <mxGeometry x="670" y="1500" width="10" height="80" as="geometry" />
        </mxCell>
        <mxCell id="uhsKY76aZJEP6ARtSAPS-12" value="" style="rounded=0;whiteSpace=wrap;html=1;" parent="1" vertex="1">
          <mxGeometry x="680" y="1500" width="10" height="80" as="geometry" />
        </mxCell>
        <mxCell id="uhsKY76aZJEP6ARtSAPS-13" value="" style="rounded=0;whiteSpace=wrap;html=1;" parent="1" vertex="1">
          <mxGeometry x="500" y="1500" width="10" height="80" as="geometry" />
        </mxCell>
        <mxCell id="uhsKY76aZJEP6ARtSAPS-14" value="" style="rounded=0;whiteSpace=wrap;html=1;" parent="1" vertex="1">
          <mxGeometry x="510" y="1500" width="10" height="80" as="geometry" />
        </mxCell>
        <mxCell id="uhsKY76aZJEP6ARtSAPS-15" value="" style="rounded=0;whiteSpace=wrap;html=1;" parent="1" vertex="1">
          <mxGeometry x="520" y="1500" width="10" height="80" as="geometry" />
        </mxCell>
        <mxCell id="uhsKY76aZJEP6ARtSAPS-16" value="" style="rounded=0;whiteSpace=wrap;html=1;" parent="1" vertex="1">
          <mxGeometry x="770" y="1500" width="10" height="80" as="geometry" />
        </mxCell>
        <mxCell id="uhsKY76aZJEP6ARtSAPS-17" value="" style="rounded=0;whiteSpace=wrap;html=1;" parent="1" vertex="1">
          <mxGeometry x="780" y="1500" width="10" height="80" as="geometry" />
        </mxCell>
        <mxCell id="uhsKY76aZJEP6ARtSAPS-18" value="" style="rounded=0;whiteSpace=wrap;html=1;" parent="1" vertex="1">
          <mxGeometry x="790" y="1500" width="10" height="80" as="geometry" />
        </mxCell>
        <mxCell id="uhsKY76aZJEP6ARtSAPS-19" value="" style="endArrow=none;dashed=1;html=1;exitX=1;exitY=0;exitDx=0;exitDy=0;" parent="1" source="uhsKY76aZJEP6ARtSAPS-15" edge="1">
          <mxGeometry width="50" height="50" relative="1" as="geometry">
            <mxPoint x="570" y="1500" as="sourcePoint" />
            <mxPoint x="610" y="1500" as="targetPoint" />
          </mxGeometry>
        </mxCell>
        <mxCell id="uhsKY76aZJEP6ARtSAPS-20" value="" style="endArrow=none;dashed=1;html=1;entryX=0;entryY=0;entryDx=0;entryDy=0;" parent="1" target="uhsKY76aZJEP6ARtSAPS-16" edge="1">
          <mxGeometry width="50" height="50" relative="1" as="geometry">
            <mxPoint x="690" y="1499.52" as="sourcePoint" />
            <mxPoint x="730" y="1499.52" as="targetPoint" />
          </mxGeometry>
        </mxCell>
        <mxCell id="uhsKY76aZJEP6ARtSAPS-21" value="" style="endArrow=none;dashed=1;html=1;exitX=1;exitY=0;exitDx=0;exitDy=0;" parent="1" edge="1">
          <mxGeometry width="50" height="50" relative="1" as="geometry">
            <mxPoint x="530" y="1579.52" as="sourcePoint" />
            <mxPoint x="610" y="1579.52" as="targetPoint" />
          </mxGeometry>
        </mxCell>
        <mxCell id="uhsKY76aZJEP6ARtSAPS-22" value="" style="endArrow=none;dashed=1;html=1;entryX=0;entryY=0;entryDx=0;entryDy=0;" parent="1" edge="1">
          <mxGeometry width="50" height="50" relative="1" as="geometry">
            <mxPoint x="690" y="1579.52" as="sourcePoint" />
            <mxPoint x="770" y="1580" as="targetPoint" />
          </mxGeometry>
        </mxCell>
        <mxCell id="uhsKY76aZJEP6ARtSAPS-23" value="" style="shape=flexArrow;endArrow=classic;html=1;width=6.666666666666666;endSize=5.157142857142857;endWidth=5.396825396825397;" parent="1" edge="1">
          <mxGeometry width="50" height="50" relative="1" as="geometry">
            <mxPoint x="710" y="1539.76" as="sourcePoint" />
            <mxPoint x="760" y="1539.76" as="targetPoint" />
          </mxGeometry>
        </mxCell>
        <mxCell id="uhsKY76aZJEP6ARtSAPS-24" value="" style="shape=flexArrow;endArrow=classic;html=1;width=6.666666666666666;endSize=5.157142857142857;endWidth=5.396825396825397;" parent="1" edge="1">
          <mxGeometry width="50" height="50" relative="1" as="geometry">
            <mxPoint x="550" y="1539.76" as="sourcePoint" />
            <mxPoint x="600" y="1539.76" as="targetPoint" />
          </mxGeometry>
        </mxCell>
        <mxCell id="uhsKY76aZJEP6ARtSAPS-25" value="&lt;font style=&quot;font-size: 10px&quot;&gt;Pointer&lt;/font&gt;" style="rounded=0;whiteSpace=wrap;html=1;" parent="1" vertex="1">
          <mxGeometry x="555" y="1640" width="40" height="20" as="geometry" />
        </mxCell>
        <mxCell id="uhsKY76aZJEP6ARtSAPS-26" value="" style="endArrow=classic;html=1;fontSize=10;exitX=1;exitY=0.5;exitDx=0;exitDy=0;" parent="1" source="uhsKY76aZJEP6ARtSAPS-25" edge="1">
          <mxGeometry width="50" height="50" relative="1" as="geometry">
            <mxPoint x="715" y="1650" as="sourcePoint" />
            <mxPoint x="635" y="1650" as="targetPoint" />
          </mxGeometry>
        </mxCell>
        <mxCell id="uhsKY76aZJEP6ARtSAPS-27" value="Empty Buffer" style="rounded=0;whiteSpace=wrap;html=1;fontSize=10;" parent="1" vertex="1">
          <mxGeometry x="635" y="1640" width="120" height="20" as="geometry" />
        </mxCell>
        <mxCell id="uhsKY76aZJEP6ARtSAPS-28" value="" style="endArrow=none;dashed=1;html=1;fontSize=10;entryX=0;entryY=1;entryDx=0;entryDy=0;exitX=1;exitY=0;exitDx=0;exitDy=0;" parent="1" source="uhsKY76aZJEP6ARtSAPS-25" target="uhsKY76aZJEP6ARtSAPS-9" edge="1">
          <mxGeometry width="50" height="50" relative="1" as="geometry">
            <mxPoint x="730" y="1640" as="sourcePoint" />
            <mxPoint x="780" y="1590" as="targetPoint" />
          </mxGeometry>
        </mxCell>
        <mxCell id="uhsKY76aZJEP6ARtSAPS-29" value="" style="endArrow=none;dashed=1;html=1;fontSize=10;entryX=0;entryY=1;entryDx=0;entryDy=0;exitX=0;exitY=0;exitDx=0;exitDy=0;" parent="1" source="uhsKY76aZJEP6ARtSAPS-25" target="uhsKY76aZJEP6ARtSAPS-8" edge="1">
          <mxGeometry width="50" height="50" relative="1" as="geometry">
            <mxPoint x="620" y="1670" as="sourcePoint" />
            <mxPoint x="660" y="1590" as="targetPoint" />
          </mxGeometry>
        </mxCell>
        <mxCell id="uhsKY76aZJEP6ARtSAPS-30" value="" style="endArrow=classic;html=1;fontSize=10;exitX=1;exitY=0.5;exitDx=0;exitDy=0;" parent="1" source="uhsKY76aZJEP6ARtSAPS-18" edge="1">
          <mxGeometry width="50" height="50" relative="1" as="geometry">
            <mxPoint x="760" y="1660" as="sourcePoint" />
            <mxPoint x="970" y="1540" as="targetPoint" />
          </mxGeometry>
        </mxCell>
        <mxCell id="uhsKY76aZJEP6ARtSAPS-31" value="Work Buffer" style="rounded=0;whiteSpace=wrap;html=1;fontSize=10;" parent="1" vertex="1">
          <mxGeometry x="1210" y="1460" width="120" height="20" as="geometry" />
        </mxCell>
        <mxCell id="uhsKY76aZJEP6ARtSAPS-32" value="&lt;font style=&quot;font-size: 10px&quot;&gt;Pointer&lt;/font&gt;" style="rounded=0;whiteSpace=wrap;html=1;" parent="1" vertex="1">
          <mxGeometry x="1130" y="1460" width="40" height="20" as="geometry" />
        </mxCell>
        <mxCell id="uhsKY76aZJEP6ARtSAPS-33" value="" style="endArrow=classic;html=1;fontSize=10;exitX=1;exitY=0.5;exitDx=0;exitDy=0;" parent="1" edge="1">
          <mxGeometry width="50" height="50" relative="1" as="geometry">
            <mxPoint x="1170" y="1469.58" as="sourcePoint" />
            <mxPoint x="1210" y="1469.58" as="targetPoint" />
          </mxGeometry>
        </mxCell>
        <mxCell id="uhsKY76aZJEP6ARtSAPS-34" value="Standby Buffer" style="rounded=0;whiteSpace=wrap;html=1;fontSize=10;" parent="1" vertex="1">
          <mxGeometry x="1090" y="1500" width="120" height="20" as="geometry" />
        </mxCell>
        <mxCell id="uhsKY76aZJEP6ARtSAPS-35" value="&lt;font style=&quot;font-size: 10px&quot;&gt;Pointer&lt;/font&gt;" style="rounded=0;whiteSpace=wrap;html=1;" parent="1" vertex="1">
          <mxGeometry x="1010" y="1500" width="40" height="20" as="geometry" />
        </mxCell>
        <mxCell id="uhsKY76aZJEP6ARtSAPS-36" value="" style="endArrow=classic;html=1;fontSize=10;exitX=1;exitY=0.5;exitDx=0;exitDy=0;" parent="1" edge="1">
          <mxGeometry width="50" height="50" relative="1" as="geometry">
            <mxPoint x="1050" y="1509.58" as="sourcePoint" />
            <mxPoint x="1090" y="1509.58" as="targetPoint" />
          </mxGeometry>
        </mxCell>
        <mxCell id="uhsKY76aZJEP6ARtSAPS-37" value="Thread&lt;br&gt;LoggerLineMessage" style="rounded=1;whiteSpace=wrap;html=1;fontSize=10;" parent="1" vertex="1">
          <mxGeometry x="1670" y="1490" width="110" height="40" as="geometry" />
        </mxCell>
        <mxCell id="uhsKY76aZJEP6ARtSAPS-38" value="" style="endArrow=classic;html=1;fontSize=10;exitX=-0.026;exitY=0.499;exitDx=0;exitDy=0;exitPerimeter=0;entryX=0.769;entryY=0.077;entryDx=0;entryDy=0;entryPerimeter=0;" parent="1" source="uhsKY76aZJEP6ARtSAPS-37" edge="1">
          <mxGeometry relative="1" as="geometry">
            <mxPoint x="1280" y="1510" as="sourcePoint" />
            <mxPoint x="1509.9699999999998" y="1510.02" as="targetPoint" />
          </mxGeometry>
        </mxCell>
        <mxCell id="uhsKY76aZJEP6ARtSAPS-39" value="" style="shape=message;html=1;outlineConnect=0;fontSize=10;" parent="uhsKY76aZJEP6ARtSAPS-38" vertex="1">
          <mxGeometry width="20" height="14" relative="1" as="geometry">
            <mxPoint x="-10" y="-7" as="offset" />
          </mxGeometry>
        </mxCell>
        <mxCell id="uhsKY76aZJEP6ARtSAPS-40" value="" style="curved=1;endArrow=classic;html=1;fontSize=10;" parent="1" edge="1">
          <mxGeometry width="50" height="50" relative="1" as="geometry">
            <mxPoint x="1220" y="1510" as="sourcePoint" />
            <mxPoint x="1120" y="1470" as="targetPoint" />
            <Array as="points">
              <mxPoint x="1280" y="1510" />
              <mxPoint x="1210" y="1490" />
              <mxPoint x="1120" y="1490" />
              <mxPoint x="1070" y="1470" />
            </Array>
          </mxGeometry>
        </mxCell>
        <mxCell id="uhsKY76aZJEP6ARtSAPS-41" value="Work Buffer" style="rounded=0;whiteSpace=wrap;html=1;fontSize=10;" parent="1" vertex="1">
          <mxGeometry x="1210" y="1540" width="120" height="20" as="geometry" />
        </mxCell>
        <mxCell id="uhsKY76aZJEP6ARtSAPS-42" value="&lt;font style=&quot;font-size: 10px&quot;&gt;Pointer&lt;/font&gt;" style="rounded=0;whiteSpace=wrap;html=1;" parent="1" vertex="1">
          <mxGeometry x="1130" y="1540" width="40" height="20" as="geometry" />
        </mxCell>
        <mxCell id="uhsKY76aZJEP6ARtSAPS-43" value="" style="endArrow=classic;html=1;fontSize=10;exitX=1;exitY=0.5;exitDx=0;exitDy=0;" parent="1" edge="1">
          <mxGeometry width="50" height="50" relative="1" as="geometry">
            <mxPoint x="1170" y="1549.58" as="sourcePoint" />
            <mxPoint x="1210" y="1549.58" as="targetPoint" />
          </mxGeometry>
        </mxCell>
        <mxCell id="uhsKY76aZJEP6ARtSAPS-44" value="Standby Buffer" style="rounded=0;whiteSpace=wrap;html=1;fontSize=10;" parent="1" vertex="1">
          <mxGeometry x="1090" y="1580" width="120" height="20" as="geometry" />
        </mxCell>
        <mxCell id="uhsKY76aZJEP6ARtSAPS-45" value="&lt;font style=&quot;font-size: 10px&quot;&gt;Pointer&lt;/font&gt;" style="rounded=0;whiteSpace=wrap;html=1;" parent="1" vertex="1">
          <mxGeometry x="1010" y="1580" width="40" height="20" as="geometry" />
        </mxCell>
        <mxCell id="uhsKY76aZJEP6ARtSAPS-46" value="" style="endArrow=classic;html=1;fontSize=10;exitX=1;exitY=0.5;exitDx=0;exitDy=0;" parent="1" edge="1">
          <mxGeometry width="50" height="50" relative="1" as="geometry">
            <mxPoint x="1050" y="1589.58" as="sourcePoint" />
            <mxPoint x="1090" y="1589.58" as="targetPoint" />
          </mxGeometry>
        </mxCell>
        <mxCell id="uhsKY76aZJEP6ARtSAPS-47" value="" style="curved=1;endArrow=classic;html=1;fontSize=10;" parent="1" edge="1">
          <mxGeometry width="50" height="50" relative="1" as="geometry">
            <mxPoint x="1220" y="1590" as="sourcePoint" />
            <mxPoint x="1120" y="1550" as="targetPoint" />
            <Array as="points">
              <mxPoint x="1280" y="1590" />
              <mxPoint x="1210" y="1570" />
              <mxPoint x="1120" y="1570" />
              <mxPoint x="1070" y="1550" />
            </Array>
          </mxGeometry>
        </mxCell>
        <mxCell id="uhsKY76aZJEP6ARtSAPS-48" value="Work Buffer" style="rounded=0;whiteSpace=wrap;html=1;fontSize=10;" parent="1" vertex="1">
          <mxGeometry x="1210" y="1730" width="120" height="20" as="geometry" />
        </mxCell>
        <mxCell id="uhsKY76aZJEP6ARtSAPS-49" value="&lt;font style=&quot;font-size: 10px&quot;&gt;Pointer&lt;/font&gt;" style="rounded=0;whiteSpace=wrap;html=1;" parent="1" vertex="1">
          <mxGeometry x="1130" y="1730" width="40" height="20" as="geometry" />
        </mxCell>
        <mxCell id="uhsKY76aZJEP6ARtSAPS-50" value="" style="endArrow=classic;html=1;fontSize=10;exitX=1;exitY=0.5;exitDx=0;exitDy=0;" parent="1" edge="1">
          <mxGeometry width="50" height="50" relative="1" as="geometry">
            <mxPoint x="1170" y="1739.58" as="sourcePoint" />
            <mxPoint x="1210" y="1739.58" as="targetPoint" />
          </mxGeometry>
        </mxCell>
        <mxCell id="uhsKY76aZJEP6ARtSAPS-51" value="Standby Buffer" style="rounded=0;whiteSpace=wrap;html=1;fontSize=10;" parent="1" vertex="1">
          <mxGeometry x="1090" y="1770" width="120" height="20" as="geometry" />
        </mxCell>
        <mxCell id="uhsKY76aZJEP6ARtSAPS-52" value="&lt;font style=&quot;font-size: 10px&quot;&gt;Pointer&lt;/font&gt;" style="rounded=0;whiteSpace=wrap;html=1;" parent="1" vertex="1">
          <mxGeometry x="1010" y="1770" width="40" height="20" as="geometry" />
        </mxCell>
        <mxCell id="uhsKY76aZJEP6ARtSAPS-53" value="" style="endArrow=classic;html=1;fontSize=10;exitX=1;exitY=0.5;exitDx=0;exitDy=0;" parent="1" edge="1">
          <mxGeometry width="50" height="50" relative="1" as="geometry">
            <mxPoint x="1050" y="1779.58" as="sourcePoint" />
            <mxPoint x="1090" y="1779.58" as="targetPoint" />
          </mxGeometry>
        </mxCell>
        <mxCell id="uhsKY76aZJEP6ARtSAPS-54" value="" style="endArrow=classic;html=1;fontSize=10;exitX=0;exitY=0.5;exitDx=0;exitDy=0;entryX=0.769;entryY=0.769;entryDx=0;entryDy=0;entryPerimeter=0;" parent="1" edge="1">
          <mxGeometry relative="1" as="geometry">
            <mxPoint x="1670" y="1690" as="sourcePoint" />
            <mxPoint x="1509.9699999999998" y="1689.94" as="targetPoint" />
          </mxGeometry>
        </mxCell>
        <mxCell id="uhsKY76aZJEP6ARtSAPS-55" value="" style="shape=message;html=1;outlineConnect=0;fontSize=10;" parent="uhsKY76aZJEP6ARtSAPS-54" vertex="1">
          <mxGeometry width="20" height="14" relative="1" as="geometry">
            <mxPoint x="-10" y="-7" as="offset" />
          </mxGeometry>
        </mxCell>
        <mxCell id="uhsKY76aZJEP6ARtSAPS-56" value="" style="curved=1;endArrow=classic;html=1;fontSize=10;" parent="1" edge="1">
          <mxGeometry width="50" height="50" relative="1" as="geometry">
            <mxPoint x="1220" y="1780" as="sourcePoint" />
            <mxPoint x="1120" y="1740" as="targetPoint" />
            <Array as="points">
              <mxPoint x="1280" y="1780" />
              <mxPoint x="1210" y="1760" />
              <mxPoint x="1120" y="1760" />
              <mxPoint x="1070" y="1740" />
            </Array>
          </mxGeometry>
        </mxCell>
        <mxCell id="uhsKY76aZJEP6ARtSAPS-57" value="" style="endArrow=none;dashed=1;html=1;dashPattern=1 3;strokeWidth=3;fontSize=10;jumpSize=6;" parent="1" edge="1">
          <mxGeometry width="50" height="50" relative="1" as="geometry">
            <mxPoint x="1724.5" y="1660" as="sourcePoint" />
            <mxPoint x="1724.9099999999999" y="1590" as="targetPoint" />
          </mxGeometry>
        </mxCell>
        <mxCell id="uhsKY76aZJEP6ARtSAPS-58" value="" style="shape=curlyBracket;whiteSpace=wrap;html=1;rounded=1;fontSize=10;" parent="1" vertex="1">
          <mxGeometry x="970" y="1510" width="30" height="270" as="geometry" />
        </mxCell>
        <mxCell id="uhsKY76aZJEP6ARtSAPS-59" value="" style="rounded=0;whiteSpace=wrap;html=1;" parent="1" vertex="1">
          <mxGeometry x="605" y="1780.48" width="10" height="80" as="geometry" />
        </mxCell>
        <mxCell id="uhsKY76aZJEP6ARtSAPS-60" value="" style="rounded=0;whiteSpace=wrap;html=1;" parent="1" vertex="1">
          <mxGeometry x="615" y="1780.48" width="10" height="80" as="geometry" />
        </mxCell>
        <mxCell id="uhsKY76aZJEP6ARtSAPS-61" value="" style="rounded=0;whiteSpace=wrap;html=1;" parent="1" vertex="1">
          <mxGeometry x="625" y="1780.48" width="10" height="80" as="geometry" />
        </mxCell>
        <mxCell id="uhsKY76aZJEP6ARtSAPS-62" value="" style="rounded=0;whiteSpace=wrap;html=1;" parent="1" vertex="1">
          <mxGeometry x="635" y="1780.48" width="10" height="80" as="geometry" />
        </mxCell>
        <mxCell id="uhsKY76aZJEP6ARtSAPS-63" value="" style="rounded=0;whiteSpace=wrap;html=1;" parent="1" vertex="1">
          <mxGeometry x="645" y="1780.48" width="10" height="80" as="geometry" />
        </mxCell>
        <mxCell id="uhsKY76aZJEP6ARtSAPS-64" value="" style="rounded=0;whiteSpace=wrap;html=1;" parent="1" vertex="1">
          <mxGeometry x="655" y="1780.48" width="10" height="80" as="geometry" />
        </mxCell>
        <mxCell id="uhsKY76aZJEP6ARtSAPS-65" value="" style="rounded=0;whiteSpace=wrap;html=1;" parent="1" vertex="1">
          <mxGeometry x="665" y="1780.48" width="10" height="80" as="geometry" />
        </mxCell>
        <mxCell id="uhsKY76aZJEP6ARtSAPS-66" value="" style="rounded=0;whiteSpace=wrap;html=1;" parent="1" vertex="1">
          <mxGeometry x="675" y="1780.48" width="10" height="80" as="geometry" />
        </mxCell>
        <mxCell id="uhsKY76aZJEP6ARtSAPS-67" value="" style="rounded=0;whiteSpace=wrap;html=1;" parent="1" vertex="1">
          <mxGeometry x="495" y="1780.48" width="10" height="80" as="geometry" />
        </mxCell>
        <mxCell id="uhsKY76aZJEP6ARtSAPS-68" value="" style="rounded=0;whiteSpace=wrap;html=1;" parent="1" vertex="1">
          <mxGeometry x="505" y="1780.48" width="10" height="80" as="geometry" />
        </mxCell>
        <mxCell id="uhsKY76aZJEP6ARtSAPS-69" value="" style="rounded=0;whiteSpace=wrap;html=1;" parent="1" vertex="1">
          <mxGeometry x="515" y="1780.48" width="10" height="80" as="geometry" />
        </mxCell>
        <mxCell id="uhsKY76aZJEP6ARtSAPS-70" value="" style="rounded=0;whiteSpace=wrap;html=1;" parent="1" vertex="1">
          <mxGeometry x="765" y="1780.48" width="10" height="80" as="geometry" />
        </mxCell>
        <mxCell id="uhsKY76aZJEP6ARtSAPS-71" value="" style="rounded=0;whiteSpace=wrap;html=1;" parent="1" vertex="1">
          <mxGeometry x="775" y="1780.48" width="10" height="80" as="geometry" />
        </mxCell>
        <mxCell id="uhsKY76aZJEP6ARtSAPS-72" value="" style="rounded=0;whiteSpace=wrap;html=1;" parent="1" vertex="1">
          <mxGeometry x="785" y="1780.48" width="10" height="80" as="geometry" />
        </mxCell>
        <mxCell id="uhsKY76aZJEP6ARtSAPS-73" value="" style="endArrow=none;dashed=1;html=1;exitX=1;exitY=0;exitDx=0;exitDy=0;" parent="1" source="uhsKY76aZJEP6ARtSAPS-69" edge="1">
          <mxGeometry width="50" height="50" relative="1" as="geometry">
            <mxPoint x="565" y="1780.48" as="sourcePoint" />
            <mxPoint x="605" y="1780.48" as="targetPoint" />
          </mxGeometry>
        </mxCell>
        <mxCell id="uhsKY76aZJEP6ARtSAPS-74" value="" style="endArrow=none;dashed=1;html=1;entryX=0;entryY=0;entryDx=0;entryDy=0;" parent="1" target="uhsKY76aZJEP6ARtSAPS-70" edge="1">
          <mxGeometry width="50" height="50" relative="1" as="geometry">
            <mxPoint x="685" y="1780" as="sourcePoint" />
            <mxPoint x="725" y="1780" as="targetPoint" />
          </mxGeometry>
        </mxCell>
        <mxCell id="uhsKY76aZJEP6ARtSAPS-75" value="" style="endArrow=none;dashed=1;html=1;exitX=1;exitY=0;exitDx=0;exitDy=0;" parent="1" edge="1">
          <mxGeometry width="50" height="50" relative="1" as="geometry">
            <mxPoint x="525" y="1860" as="sourcePoint" />
            <mxPoint x="605" y="1860" as="targetPoint" />
          </mxGeometry>
        </mxCell>
        <mxCell id="uhsKY76aZJEP6ARtSAPS-76" value="" style="endArrow=none;dashed=1;html=1;entryX=0;entryY=0;entryDx=0;entryDy=0;" parent="1" edge="1">
          <mxGeometry width="50" height="50" relative="1" as="geometry">
            <mxPoint x="685" y="1860" as="sourcePoint" />
            <mxPoint x="765" y="1860.48" as="targetPoint" />
          </mxGeometry>
        </mxCell>
        <mxCell id="uhsKY76aZJEP6ARtSAPS-77" value="" style="shape=flexArrow;endArrow=classic;html=1;width=6.666666666666666;endSize=5.157142857142857;endWidth=5.396825396825397;" parent="1" edge="1">
          <mxGeometry width="50" height="50" relative="1" as="geometry">
            <mxPoint x="755" y="1820.24" as="sourcePoint" />
            <mxPoint x="705" y="1820.24" as="targetPoint" />
          </mxGeometry>
        </mxCell>
        <mxCell id="uhsKY76aZJEP6ARtSAPS-78" value="" style="shape=flexArrow;endArrow=classic;html=1;width=6.666666666666666;endSize=5.157142857142857;endWidth=5.396825396825397;" parent="1" edge="1">
          <mxGeometry width="50" height="50" relative="1" as="geometry">
            <mxPoint x="595" y="1820.24" as="sourcePoint" />
            <mxPoint x="545" y="1820.24" as="targetPoint" />
          </mxGeometry>
        </mxCell>
        <mxCell id="uhsKY76aZJEP6ARtSAPS-79" value="&lt;font style=&quot;font-size: 10px&quot;&gt;Pointer&lt;/font&gt;" style="rounded=0;whiteSpace=wrap;html=1;" parent="1" vertex="1">
          <mxGeometry x="645" y="1700" width="40" height="20" as="geometry" />
        </mxCell>
        <mxCell id="uhsKY76aZJEP6ARtSAPS-80" value="" style="endArrow=classic;html=1;fontSize=10;exitX=1;exitY=0.5;exitDx=0;exitDy=0;" parent="1" source="uhsKY76aZJEP6ARtSAPS-79" edge="1">
          <mxGeometry width="50" height="50" relative="1" as="geometry">
            <mxPoint x="805" y="1710" as="sourcePoint" />
            <mxPoint x="725" y="1710" as="targetPoint" />
          </mxGeometry>
        </mxCell>
        <mxCell id="uhsKY76aZJEP6ARtSAPS-81" value="Ready Buffer" style="rounded=0;whiteSpace=wrap;html=1;fontSize=10;" parent="1" vertex="1">
          <mxGeometry x="725" y="1700" width="120" height="20" as="geometry" />
        </mxCell>
        <mxCell id="uhsKY76aZJEP6ARtSAPS-82" value="" style="endArrow=none;dashed=1;html=1;fontSize=10;entryX=0;entryY=1;entryDx=0;entryDy=0;exitX=1;exitY=0;exitDx=0;exitDy=0;" parent="1" source="uhsKY76aZJEP6ARtSAPS-59" target="uhsKY76aZJEP6ARtSAPS-79" edge="1">
          <mxGeometry width="50" height="50" relative="1" as="geometry">
            <mxPoint x="580" y="1670" as="sourcePoint" />
            <mxPoint x="650" y="1590" as="targetPoint" />
          </mxGeometry>
        </mxCell>
        <mxCell id="uhsKY76aZJEP6ARtSAPS-83" value="" style="endArrow=none;dashed=1;html=1;fontSize=10;entryX=1;entryY=1;entryDx=0;entryDy=0;exitX=0;exitY=0;exitDx=0;exitDy=0;" parent="1" source="uhsKY76aZJEP6ARtSAPS-61" target="uhsKY76aZJEP6ARtSAPS-79" edge="1">
          <mxGeometry width="50" height="50" relative="1" as="geometry">
            <mxPoint x="630" y="1780" as="sourcePoint" />
            <mxPoint x="620" y="1730" as="targetPoint" />
          </mxGeometry>
        </mxCell>
        <mxCell id="uhsKY76aZJEP6ARtSAPS-84" value="Pop" style="text;html=1;align=center;verticalAlign=middle;resizable=0;points=[];autosize=1;strokeColor=none;fillColor=none;fontSize=10;" parent="1" vertex="1">
          <mxGeometry x="860" y="1520" width="30" height="20" as="geometry" />
        </mxCell>
        <mxCell id="uhsKY76aZJEP6ARtSAPS-85" value="" style="endArrow=classic;html=1;fontSize=10;" parent="1" edge="1">
          <mxGeometry width="50" height="50" relative="1" as="geometry">
            <mxPoint x="490" y="1820" as="sourcePoint" />
            <mxPoint x="360" y="1730" as="targetPoint" />
            <Array as="points">
              <mxPoint x="360" y="1820" />
            </Array>
          </mxGeometry>
        </mxCell>
        <mxCell id="uhsKY76aZJEP6ARtSAPS-86" value="Pop&amp;amp;Write" style="text;html=1;align=center;verticalAlign=middle;resizable=0;points=[];autosize=1;strokeColor=none;fillColor=none;fontSize=10;" parent="1" vertex="1">
          <mxGeometry x="395" y="1795" width="70" height="30" as="geometry" />
        </mxCell>
        <mxCell id="uhsKY76aZJEP6ARtSAPS-87" value="" style="endArrow=classic;html=1;fontSize=10;entryX=0;entryY=0.5;entryDx=0;entryDy=0;" parent="1" target="uhsKY76aZJEP6ARtSAPS-13" edge="1">
          <mxGeometry width="50" height="50" relative="1" as="geometry">
            <mxPoint x="360" y="1630" as="sourcePoint" />
            <mxPoint x="360" y="1510" as="targetPoint" />
            <Array as="points">
              <mxPoint x="360" y="1540" />
            </Array>
          </mxGeometry>
        </mxCell>
        <mxCell id="uhsKY76aZJEP6ARtSAPS-88" value="Wrote&amp;amp;Push" style="text;html=1;align=center;verticalAlign=middle;resizable=0;points=[];autosize=1;strokeColor=none;fillColor=none;fontSize=10;" parent="1" vertex="1">
          <mxGeometry x="395" y="1520" width="70" height="20" as="geometry" />
        </mxCell>
        <mxCell id="uhsKY76aZJEP6ARtSAPS-89" value="Full or timeout" style="text;html=1;align=center;verticalAlign=middle;resizable=0;points=[];autosize=1;strokeColor=none;fillColor=none;fontSize=10;" parent="1" vertex="1">
          <mxGeometry x="1020" y="1840.48" width="80" height="20" as="geometry" />
        </mxCell>
        <mxCell id="uhsKY76aZJEP6ARtSAPS-90" value="Empty Buffer Queue" style="text;html=1;align=center;verticalAlign=middle;resizable=0;points=[];autosize=1;strokeColor=none;fillColor=none;fontSize=10;" parent="1" vertex="1">
          <mxGeometry x="600" y="1470" width="110" height="20" as="geometry" />
        </mxCell>
        <mxCell id="uhsKY76aZJEP6ARtSAPS-91" value="Ready Buffer Queue" style="text;html=1;align=center;verticalAlign=middle;resizable=0;points=[];autosize=1;strokeColor=none;fillColor=none;fontSize=10;" parent="1" vertex="1">
          <mxGeometry x="600" y="1870" width="110" height="20" as="geometry" />
        </mxCell>
        <mxCell id="uhsKY76aZJEP6ARtSAPS-92" value="" style="endArrow=classic;html=1;fontSize=10;exitX=0.825;exitY=1.122;exitDx=0;exitDy=0;exitPerimeter=0;" parent="1" source="uhsKY76aZJEP6ARtSAPS-48" edge="1">
          <mxGeometry width="50" height="50" relative="1" as="geometry">
            <mxPoint x="1308.88" y="1770" as="sourcePoint" />
            <mxPoint x="795" y="1839.5" as="targetPoint" />
            <Array as="points">
              <mxPoint x="1310" y="1839.5" />
            </Array>
          </mxGeometry>
        </mxCell>
        <mxCell id="uhsKY76aZJEP6ARtSAPS-93" value="Push" style="text;html=1;align=center;verticalAlign=middle;resizable=0;points=[];autosize=1;strokeColor=none;fillColor=none;" parent="1" vertex="1">
          <mxGeometry x="850" y="1800" width="40" height="20" as="geometry" />
        </mxCell>
        <mxCell id="uhsKY76aZJEP6ARtSAPS-94" value="SafeHash&amp;lt;thread::id, LoggerLine&amp;gt;" style="text;html=1;align=center;verticalAlign=middle;resizable=0;points=[];autosize=1;strokeColor=none;fillColor=none;" parent="1" vertex="1">
          <mxGeometry x="1385" y="1765" width="210" height="30" as="geometry" />
        </mxCell>
        <mxCell id="uhsKY76aZJEP6ARtSAPS-95" value="" style="endArrow=classic;html=1;fontSize=10;exitX=-0.026;exitY=0.499;exitDx=0;exitDy=0;exitPerimeter=0;entryX=0.769;entryY=0.269;entryDx=0;entryDy=0;entryPerimeter=0;" parent="1" edge="1">
          <mxGeometry relative="1" as="geometry">
            <mxPoint x="1667.92" y="1559.96" as="sourcePoint" />
            <mxPoint x="1509.9699999999998" y="1559.94" as="targetPoint" />
          </mxGeometry>
        </mxCell>
        <mxCell id="uhsKY76aZJEP6ARtSAPS-96" value="" style="shape=message;html=1;outlineConnect=0;fontSize=10;" parent="uhsKY76aZJEP6ARtSAPS-95" vertex="1">
          <mxGeometry width="20" height="14" relative="1" as="geometry">
            <mxPoint x="-10" y="-7" as="offset" />
          </mxGeometry>
        </mxCell>
        <mxCell id="uhsKY76aZJEP6ARtSAPS-97" value="" style="endArrow=classic;html=1;fontSize=10;entryX=1;entryY=0.5;entryDx=0;entryDy=0;" parent="1" target="uhsKY76aZJEP6ARtSAPS-31" edge="1">
          <mxGeometry relative="1" as="geometry">
            <mxPoint x="1450" y="1470" as="sourcePoint" />
            <mxPoint x="1269.9999999999998" y="1520" as="targetPoint" />
          </mxGeometry>
        </mxCell>
        <mxCell id="uhsKY76aZJEP6ARtSAPS-98" value="" style="shape=message;html=1;outlineConnect=0;fontSize=10;" parent="uhsKY76aZJEP6ARtSAPS-97" vertex="1">
          <mxGeometry width="20" height="14" relative="1" as="geometry">
            <mxPoint x="-10" y="-7" as="offset" />
          </mxGeometry>
        </mxCell>
        <mxCell id="uhsKY76aZJEP6ARtSAPS-99" value="" style="endArrow=none;html=1;strokeWidth=1;dashed=1;" parent="1" edge="1">
          <mxGeometry width="50" height="50" relative="1" as="geometry">
            <mxPoint x="1450" y="1740" as="sourcePoint" />
            <mxPoint x="1510" y="1510" as="targetPoint" />
          </mxGeometry>
        </mxCell>
        <mxCell id="uhsKY76aZJEP6ARtSAPS-100" value="" style="endArrow=none;html=1;strokeWidth=1;dashed=1;" parent="1" edge="1">
          <mxGeometry width="50" height="50" relative="1" as="geometry">
            <mxPoint x="1450" y="1470" as="sourcePoint" />
            <mxPoint x="1510" y="1560" as="targetPoint" />
          </mxGeometry>
        </mxCell>
        <mxCell id="uhsKY76aZJEP6ARtSAPS-101" value="" style="endArrow=none;html=1;strokeWidth=1;dashed=1;" parent="1" edge="1">
          <mxGeometry width="50" height="50" relative="1" as="geometry">
            <mxPoint x="1450" y="1550" as="sourcePoint" />
            <mxPoint x="1510" y="1690" as="targetPoint" />
          </mxGeometry>
        </mxCell>
        <mxCell id="uhsKY76aZJEP6ARtSAPS-102" value="" style="endArrow=classic;html=1;fontSize=10;entryX=1;entryY=0.5;entryDx=0;entryDy=0;" parent="1" edge="1">
          <mxGeometry relative="1" as="geometry">
            <mxPoint x="1450" y="1550" as="sourcePoint" />
            <mxPoint x="1330" y="1550" as="targetPoint" />
          </mxGeometry>
        </mxCell>
        <mxCell id="uhsKY76aZJEP6ARtSAPS-103" value="" style="shape=message;html=1;outlineConnect=0;fontSize=10;" parent="uhsKY76aZJEP6ARtSAPS-102" vertex="1">
          <mxGeometry width="20" height="14" relative="1" as="geometry">
            <mxPoint x="-10" y="-7" as="offset" />
          </mxGeometry>
        </mxCell>
        <mxCell id="uhsKY76aZJEP6ARtSAPS-104" value="" style="endArrow=classic;html=1;fontSize=10;entryX=1;entryY=0.5;entryDx=0;entryDy=0;" parent="1" edge="1">
          <mxGeometry relative="1" as="geometry">
            <mxPoint x="1450" y="1739.5" as="sourcePoint" />
            <mxPoint x="1330" y="1739.5" as="targetPoint" />
          </mxGeometry>
        </mxCell>
        <mxCell id="uhsKY76aZJEP6ARtSAPS-105" value="" style="shape=message;html=1;outlineConnect=0;fontSize=10;" parent="uhsKY76aZJEP6ARtSAPS-104" vertex="1">
          <mxGeometry width="20" height="14" relative="1" as="geometry">
            <mxPoint x="-10" y="-7" as="offset" />
          </mxGeometry>
        </mxCell>
        <mxCell id="uhsKY76aZJEP6ARtSAPS-106" value="" style="endArrow=none;html=1;strokeWidth=1;exitX=0.643;exitY=1.003;exitDx=0;exitDy=0;exitPerimeter=0;entryX=0.636;entryY=0.003;entryDx=0;entryDy=0;entryPerimeter=0;" parent="1" source="uhsKY76aZJEP6ARtSAPS-1" target="uhsKY76aZJEP6ARtSAPS-1" edge="1">
          <mxGeometry width="50" height="50" relative="1" as="geometry">
            <mxPoint x="1350" y="1650" as="sourcePoint" />
            <mxPoint x="1400" y="1600" as="targetPoint" />
          </mxGeometry>
        </mxCell>
        <mxCell id="uhsKY76aZJEP6ARtSAPS-107" value="" style="endArrow=none;html=1;strokeWidth=1;exitX=0.643;exitY=1.003;exitDx=0;exitDy=0;exitPerimeter=0;entryX=0.636;entryY=0.003;entryDx=0;entryDy=0;entryPerimeter=0;" parent="1" edge="1">
          <mxGeometry width="50" height="50" relative="1" as="geometry">
            <mxPoint x="1450.98" y="1760" as="sourcePoint" />
            <mxPoint x="1450" y="1450" as="targetPoint" />
          </mxGeometry>
        </mxCell>
        <mxCell id="uhsKY76aZJEP6ARtSAPS-108" value="Thread&lt;br&gt;LoggerLineMessage" style="rounded=1;whiteSpace=wrap;html=1;fontSize=10;" parent="1" vertex="1">
          <mxGeometry x="1670" y="1540" width="110" height="40" as="geometry" />
        </mxCell>
        <mxCell id="uhsKY76aZJEP6ARtSAPS-109" value="Thread&lt;br&gt;LoggerLineMessage" style="rounded=1;whiteSpace=wrap;html=1;fontSize=10;" parent="1" vertex="1">
          <mxGeometry x="1670" y="1670" width="110" height="40" as="geometry" />
        </mxCell>
        <mxCell id="uhsKY76aZJEP6ARtSAPS-204" style="edgeStyle=orthogonalEdgeStyle;rounded=0;orthogonalLoop=1;jettySize=auto;html=1;entryX=0;entryY=0.5;entryDx=0;entryDy=0;" parent="1" source="uhsKY76aZJEP6ARtSAPS-110" target="uhsKY76aZJEP6ARtSAPS-203" edge="1">
          <mxGeometry relative="1" as="geometry">
            <Array as="points">
              <mxPoint x="480" y="620" />
              <mxPoint x="480" y="160" />
            </Array>
          </mxGeometry>
        </mxCell>
        <mxCell id="uhsKY76aZJEP6ARtSAPS-110" value="Logger" style="swimlane;whiteSpace=wrap;html=1;startSize=40;fillColor=#0050ef;fontColor=#ffffff;strokeColor=#001DBC;" parent="1" vertex="1">
          <mxGeometry x="200" y="120" width="240" height="1000" as="geometry" />
        </mxCell>
        <mxCell id="uhsKY76aZJEP6ARtSAPS-129" value="customPath()" style="rounded=0;whiteSpace=wrap;html=1;" parent="uhsKY76aZJEP6ARtSAPS-110" vertex="1">
          <mxGeometry x="40" y="80" width="160" height="40" as="geometry" />
        </mxCell>
        <mxCell id="uhsKY76aZJEP6ARtSAPS-130" value="init()" style="rounded=0;whiteSpace=wrap;html=1;" parent="uhsKY76aZJEP6ARtSAPS-110" vertex="1">
          <mxGeometry x="40" y="140" width="160" height="40" as="geometry" />
        </mxCell>
        <mxCell id="uhsKY76aZJEP6ARtSAPS-131" value="registerLoggerLine()" style="rounded=0;whiteSpace=wrap;html=1;" parent="uhsKY76aZJEP6ARtSAPS-110" vertex="1">
          <mxGeometry x="40" y="200" width="160" height="40" as="geometry" />
        </mxCell>
        <mxCell id="uhsKY76aZJEP6ARtSAPS-132" value="findLoggerLine()" style="rounded=0;whiteSpace=wrap;html=1;" parent="uhsKY76aZJEP6ARtSAPS-110" vertex="1">
          <mxGeometry x="40" y="260" width="160" height="40" as="geometry" />
        </mxCell>
        <mxCell id="uhsKY76aZJEP6ARtSAPS-133" value="createFile()" style="rounded=0;whiteSpace=wrap;html=1;" parent="uhsKY76aZJEP6ARtSAPS-110" vertex="1">
          <mxGeometry x="40" y="320" width="160" height="40" as="geometry" />
        </mxCell>
        <mxCell id="uhsKY76aZJEP6ARtSAPS-134" value="archive()" style="rounded=0;whiteSpace=wrap;html=1;" parent="uhsKY76aZJEP6ARtSAPS-110" vertex="1">
          <mxGeometry x="40" y="380" width="160" height="40" as="geometry" />
        </mxCell>
        <mxCell id="uhsKY76aZJEP6ARtSAPS-135" value="work()" style="rounded=0;whiteSpace=wrap;html=1;" parent="uhsKY76aZJEP6ARtSAPS-110" vertex="1">
          <mxGeometry x="40" y="440" width="160" height="40" as="geometry" />
        </mxCell>
        <mxCell id="uhsKY76aZJEP6ARtSAPS-136" value="mCurrentLoggerFile" style="rounded=1;whiteSpace=wrap;html=1;arcSize=41;" parent="uhsKY76aZJEP6ARtSAPS-110" vertex="1">
          <mxGeometry x="60" y="600" width="120" height="40" as="geometry" />
        </mxCell>
        <mxCell id="uhsKY76aZJEP6ARtSAPS-137" value="mBackgroundThd" style="rounded=1;whiteSpace=wrap;html=1;arcSize=41;" parent="uhsKY76aZJEP6ARtSAPS-110" vertex="1">
          <mxGeometry x="60" y="660" width="120" height="40" as="geometry" />
        </mxCell>
        <mxCell id="uhsKY76aZJEP6ARtSAPS-138" value="mTimeWheelTimerWeak" style="rounded=1;whiteSpace=wrap;html=1;arcSize=41;" parent="uhsKY76aZJEP6ARtSAPS-110" vertex="1">
          <mxGeometry x="40" y="720" width="160" height="40" as="geometry" />
        </mxCell>
        <mxCell id="uhsKY76aZJEP6ARtSAPS-139" value="mFilledLoggerBufferQueuePtr" style="rounded=1;whiteSpace=wrap;html=1;arcSize=41;" parent="uhsKY76aZJEP6ARtSAPS-110" vertex="1">
          <mxGeometry x="20" y="780" width="200" height="40" as="geometry" />
        </mxCell>
        <mxCell id="uhsKY76aZJEP6ARtSAPS-140" value="mEmptyLoggerBufferQueuePtr" style="rounded=1;whiteSpace=wrap;html=1;arcSize=41;" parent="uhsKY76aZJEP6ARtSAPS-110" vertex="1">
          <mxGeometry x="20" y="840" width="200" height="40" as="geometry" />
        </mxCell>
        <mxCell id="uhsKY76aZJEP6ARtSAPS-141" value="mLoggerLineHashtablePtr" style="rounded=1;whiteSpace=wrap;html=1;arcSize=41;" parent="uhsKY76aZJEP6ARtSAPS-110" vertex="1">
          <mxGeometry x="40" y="900" width="160" height="40" as="geometry" />
        </mxCell>
        <mxCell id="uhsKY76aZJEP6ARtSAPS-118" style="edgeStyle=orthogonalEdgeStyle;rounded=0;orthogonalLoop=1;jettySize=auto;html=1;exitX=1;exitY=0.5;exitDx=0;exitDy=0;entryX=0;entryY=0.5;entryDx=0;entryDy=0;" parent="1" source="uhsKY76aZJEP6ARtSAPS-111" target="uhsKY76aZJEP6ARtSAPS-117" edge="1">
          <mxGeometry relative="1" as="geometry">
            <Array as="points">
              <mxPoint x="1560" y="300" />
              <mxPoint x="1560" y="160" />
            </Array>
          </mxGeometry>
        </mxCell>
        <mxCell id="uhsKY76aZJEP6ARtSAPS-121" style="edgeStyle=orthogonalEdgeStyle;rounded=0;orthogonalLoop=1;jettySize=auto;html=1;exitX=1;exitY=0.5;exitDx=0;exitDy=0;entryX=0;entryY=0.5;entryDx=0;entryDy=0;" parent="1" source="uhsKY76aZJEP6ARtSAPS-111" target="uhsKY76aZJEP6ARtSAPS-120" edge="1">
          <mxGeometry relative="1" as="geometry">
            <Array as="points">
              <mxPoint x="1560" y="300" />
              <mxPoint x="1560" y="260" />
            </Array>
          </mxGeometry>
        </mxCell>
        <mxCell id="uhsKY76aZJEP6ARtSAPS-111" value="LoggerMessage" style="swimlane;whiteSpace=wrap;html=1;startSize=40;fillColor=#0050ef;fontColor=#ffffff;strokeColor=#001DBC;" parent="1" vertex="1">
          <mxGeometry x="1160" y="120" width="240" height="360" as="geometry" />
        </mxCell>
        <mxCell id="uhsKY76aZJEP6ARtSAPS-112" value="LINK()" style="rounded=0;whiteSpace=wrap;html=1;" parent="uhsKY76aZJEP6ARtSAPS-111" vertex="1">
          <mxGeometry x="45" y="80" width="160" height="40" as="geometry" />
        </mxCell>
        <mxCell id="uhsKY76aZJEP6ARtSAPS-113" value="operator&amp;lt;&amp;lt;()" style="rounded=0;whiteSpace=wrap;html=1;" parent="uhsKY76aZJEP6ARtSAPS-111" vertex="1">
          <mxGeometry x="45" y="140" width="160" height="40" as="geometry" />
        </mxCell>
        <mxCell id="uhsKY76aZJEP6ARtSAPS-114" value="push()" style="rounded=0;whiteSpace=wrap;html=1;" parent="uhsKY76aZJEP6ARtSAPS-111" vertex="1">
          <mxGeometry x="45" y="200" width="160" height="40" as="geometry" />
        </mxCell>
        <mxCell id="uhsKY76aZJEP6ARtSAPS-115" value="mLoggerWeak" style="rounded=1;whiteSpace=wrap;html=1;arcSize=41;" parent="uhsKY76aZJEP6ARtSAPS-111" vertex="1">
          <mxGeometry x="57.5" y="280" width="122.5" height="40" as="geometry" />
        </mxCell>
        <mxCell id="uhsKY76aZJEP6ARtSAPS-116" style="edgeStyle=orthogonalEdgeStyle;rounded=0;orthogonalLoop=1;jettySize=auto;html=1;exitX=0;exitY=0.5;exitDx=0;exitDy=0;entryX=0.5;entryY=1;entryDx=0;entryDy=0;fillColor=#0050ef;strokeColor=#001DBC;" parent="1" source="uhsKY76aZJEP6ARtSAPS-115" target="uhsKY76aZJEP6ARtSAPS-110" edge="1">
          <mxGeometry relative="1" as="geometry">
            <Array as="points">
              <mxPoint x="1080" y="420" />
              <mxPoint x="1080" y="1140" />
              <mxPoint x="320" y="1140" />
            </Array>
          </mxGeometry>
        </mxCell>
        <mxCell id="uhsKY76aZJEP6ARtSAPS-117" value="level, file, function, line&lt;br&gt;thread id" style="rounded=0;whiteSpace=wrap;html=1;" parent="1" vertex="1">
          <mxGeometry x="1640" y="120" width="160" height="80" as="geometry" />
        </mxCell>
        <mxCell id="uhsKY76aZJEP6ARtSAPS-119" value="constructor" style="text;html=1;align=center;verticalAlign=middle;resizable=0;points=[];autosize=1;strokeColor=none;fillColor=none;" parent="1" vertex="1">
          <mxGeometry x="1560" y="128" width="80" height="30" as="geometry" />
        </mxCell>
        <mxCell id="uhsKY76aZJEP6ARtSAPS-120" value="push()" style="rounded=0;whiteSpace=wrap;html=1;" parent="1" vertex="1">
          <mxGeometry x="1640" y="240" width="80" height="40" as="geometry" />
        </mxCell>
        <mxCell id="uhsKY76aZJEP6ARtSAPS-122" value="destructor" style="text;html=1;align=center;verticalAlign=middle;resizable=0;points=[];autosize=1;strokeColor=none;fillColor=none;" parent="1" vertex="1">
          <mxGeometry x="1560" y="230" width="80" height="30" as="geometry" />
        </mxCell>
        <mxCell id="uhsKY76aZJEP6ARtSAPS-123" value="mLoggerWeak = shared_ptr&amp;lt;Logger&amp;gt;" style="shape=document;whiteSpace=wrap;html=1;boundedLbl=1;fillColor=#dae8fc;strokeColor=#6c8ebf;" parent="1" vertex="1">
          <mxGeometry x="1640" y="320" width="240" height="60" as="geometry" />
        </mxCell>
        <mxCell id="uhsKY76aZJEP6ARtSAPS-124" style="edgeStyle=orthogonalEdgeStyle;rounded=0;orthogonalLoop=1;jettySize=auto;html=1;exitX=1;exitY=0.5;exitDx=0;exitDy=0;entryX=0;entryY=0.5;entryDx=0;entryDy=0;fillColor=#dae8fc;strokeColor=#6c8ebf;" parent="1" source="uhsKY76aZJEP6ARtSAPS-112" target="uhsKY76aZJEP6ARtSAPS-123" edge="1">
          <mxGeometry relative="1" as="geometry" />
        </mxCell>
        <mxCell id="uhsKY76aZJEP6ARtSAPS-125" value="lptr = mLoggerWeak.lock()&lt;br&gt;lptr -&amp;gt; findLoggerLine() -&amp;gt; pushToBuffer()&lt;br&gt;std::cout &amp;lt;&amp;lt;&amp;nbsp; if mCout" style="shape=document;whiteSpace=wrap;html=1;boundedLbl=1;fillColor=#dae8fc;strokeColor=#6c8ebf;" parent="1" vertex="1">
          <mxGeometry x="1600" y="480" width="240" height="100" as="geometry" />
        </mxCell>
        <mxCell id="uhsKY76aZJEP6ARtSAPS-126" style="edgeStyle=orthogonalEdgeStyle;rounded=0;orthogonalLoop=1;jettySize=auto;html=1;exitX=1;exitY=0.5;exitDx=0;exitDy=0;entryX=0;entryY=0.5;entryDx=0;entryDy=0;fillColor=#dae8fc;strokeColor=#6c8ebf;" parent="1" source="uhsKY76aZJEP6ARtSAPS-114" target="uhsKY76aZJEP6ARtSAPS-125" edge="1">
          <mxGeometry relative="1" as="geometry" />
        </mxCell>
        <mxCell id="uhsKY76aZJEP6ARtSAPS-127" value="char, integer, float, string_view, thread::id, TAG, Level" style="shape=document;whiteSpace=wrap;html=1;boundedLbl=1;fillColor=#dae8fc;strokeColor=#6c8ebf;" parent="1" vertex="1">
          <mxGeometry x="1520" y="400" width="360" height="60" as="geometry" />
        </mxCell>
        <mxCell id="uhsKY76aZJEP6ARtSAPS-128" style="edgeStyle=orthogonalEdgeStyle;rounded=0;orthogonalLoop=1;jettySize=auto;html=1;exitX=1;exitY=0.5;exitDx=0;exitDy=0;entryX=0;entryY=0.5;entryDx=0;entryDy=0;fillColor=#dae8fc;strokeColor=#6c8ebf;" parent="1" source="uhsKY76aZJEP6ARtSAPS-113" target="uhsKY76aZJEP6ARtSAPS-127" edge="1">
          <mxGeometry relative="1" as="geometry" />
        </mxCell>
        <mxCell id="uhsKY76aZJEP6ARtSAPS-147" style="edgeStyle=orthogonalEdgeStyle;rounded=0;orthogonalLoop=1;jettySize=auto;html=1;exitX=1;exitY=0.5;exitDx=0;exitDy=0;fillColor=#e1d5e7;strokeColor=#9673a6;" parent="1" source="uhsKY76aZJEP6ARtSAPS-142" edge="1">
          <mxGeometry relative="1" as="geometry">
            <mxPoint x="1480" y="1430" as="targetPoint" />
          </mxGeometry>
        </mxCell>
        <mxCell id="uhsKY76aZJEP6ARtSAPS-142" value="" style="rounded=0;whiteSpace=wrap;html=1;" parent="1" vertex="1">
          <mxGeometry x="555" y="1160" width="280" height="80" as="geometry" />
        </mxCell>
        <mxCell id="uhsKY76aZJEP6ARtSAPS-145" style="edgeStyle=orthogonalEdgeStyle;rounded=0;orthogonalLoop=1;jettySize=auto;html=1;exitX=1;exitY=0.5;exitDx=0;exitDy=0;entryX=0;entryY=0.5;entryDx=0;entryDy=0;" parent="1" source="uhsKY76aZJEP6ARtSAPS-143" target="uhsKY76aZJEP6ARtSAPS-144" edge="1">
          <mxGeometry relative="1" as="geometry" />
        </mxCell>
        <mxCell id="uhsKY76aZJEP6ARtSAPS-143" value="thread::id" style="rounded=0;whiteSpace=wrap;html=1;" parent="1" vertex="1">
          <mxGeometry x="575" y="1180" width="80" height="40" as="geometry" />
        </mxCell>
        <mxCell id="uhsKY76aZJEP6ARtSAPS-173" style="edgeStyle=orthogonalEdgeStyle;rounded=0;orthogonalLoop=1;jettySize=auto;html=1;exitX=0.5;exitY=0;exitDx=0;exitDy=0;entryX=0.5;entryY=1;entryDx=0;entryDy=0;fillColor=#f8cecc;strokeColor=#b85450;" parent="1" source="uhsKY76aZJEP6ARtSAPS-144" target="uhsKY76aZJEP6ARtSAPS-148" edge="1">
          <mxGeometry relative="1" as="geometry" />
        </mxCell>
        <mxCell id="uhsKY76aZJEP6ARtSAPS-144" value="shared_ptr&amp;lt;LoggerLine&amp;gt;" style="rounded=0;whiteSpace=wrap;html=1;" parent="1" vertex="1">
          <mxGeometry x="675" y="1180" width="140" height="40" as="geometry" />
        </mxCell>
        <mxCell id="uhsKY76aZJEP6ARtSAPS-146" style="edgeStyle=orthogonalEdgeStyle;rounded=0;orthogonalLoop=1;jettySize=auto;html=1;exitX=1;exitY=0.5;exitDx=0;exitDy=0;entryX=0;entryY=0.5;entryDx=0;entryDy=0;fillColor=#e1d5e7;strokeColor=#9673a6;" parent="1" source="uhsKY76aZJEP6ARtSAPS-141" target="uhsKY76aZJEP6ARtSAPS-142" edge="1">
          <mxGeometry relative="1" as="geometry" />
        </mxCell>
        <mxCell id="uhsKY76aZJEP6ARtSAPS-148" value="LoggerLine" style="swimlane;whiteSpace=wrap;html=1;startSize=40;fillColor=#f8cecc;strokeColor=#b85450;" parent="1" vertex="1">
          <mxGeometry x="1960" y="360" width="240" height="560" as="geometry" />
        </mxCell>
        <mxCell id="uhsKY76aZJEP6ARtSAPS-151" value="pushToBuffer()" style="rounded=0;whiteSpace=wrap;html=1;" parent="uhsKY76aZJEP6ARtSAPS-148" vertex="1">
          <mxGeometry x="41" y="80" width="160" height="40" as="geometry" />
        </mxCell>
        <mxCell id="uhsKY76aZJEP6ARtSAPS-152" value="pushToQueue()" style="rounded=0;whiteSpace=wrap;html=1;" parent="uhsKY76aZJEP6ARtSAPS-148" vertex="1">
          <mxGeometry x="41" y="140" width="160" height="40" as="geometry" />
        </mxCell>
        <mxCell id="uhsKY76aZJEP6ARtSAPS-153" value="getEmptyBuffer()" style="rounded=0;whiteSpace=wrap;html=1;" parent="uhsKY76aZJEP6ARtSAPS-148" vertex="1">
          <mxGeometry x="41" y="200" width="160" height="40" as="geometry" />
        </mxCell>
        <mxCell id="uhsKY76aZJEP6ARtSAPS-200" style="edgeStyle=orthogonalEdgeStyle;rounded=0;orthogonalLoop=1;jettySize=auto;html=1;exitX=0;exitY=0.5;exitDx=0;exitDy=0;fillColor=#e1d5e7;strokeColor=#9673a6;" parent="uhsKY76aZJEP6ARtSAPS-148" source="uhsKY76aZJEP6ARtSAPS-154" edge="1">
          <mxGeometry relative="1" as="geometry">
            <mxPoint x="-810" y="1080" as="targetPoint" />
          </mxGeometry>
        </mxCell>
        <mxCell id="uhsKY76aZJEP6ARtSAPS-154" value="mLoggerBufferPtrA" style="rounded=1;whiteSpace=wrap;html=1;arcSize=41;" parent="uhsKY76aZJEP6ARtSAPS-148" vertex="1">
          <mxGeometry x="61" y="280" width="120" height="40" as="geometry" />
        </mxCell>
        <mxCell id="uhsKY76aZJEP6ARtSAPS-201" style="edgeStyle=orthogonalEdgeStyle;rounded=0;orthogonalLoop=1;jettySize=auto;html=1;exitX=0;exitY=0.5;exitDx=0;exitDy=0;fillColor=#e1d5e7;strokeColor=#9673a6;" parent="uhsKY76aZJEP6ARtSAPS-148" source="uhsKY76aZJEP6ARtSAPS-170" edge="1">
          <mxGeometry relative="1" as="geometry">
            <mxPoint x="-930" y="1120" as="targetPoint" />
          </mxGeometry>
        </mxCell>
        <mxCell id="uhsKY76aZJEP6ARtSAPS-170" value="mLoggerBufferPtrB" style="rounded=1;whiteSpace=wrap;html=1;arcSize=41;" parent="uhsKY76aZJEP6ARtSAPS-148" vertex="1">
          <mxGeometry x="61" y="340" width="120" height="40" as="geometry" />
        </mxCell>
        <mxCell id="uhsKY76aZJEP6ARtSAPS-171" value="mFilledLoggerBufferQueueWeak" style="rounded=1;whiteSpace=wrap;html=1;arcSize=41;" parent="uhsKY76aZJEP6ARtSAPS-148" vertex="1">
          <mxGeometry x="20" y="400" width="200" height="40" as="geometry" />
        </mxCell>
        <mxCell id="uhsKY76aZJEP6ARtSAPS-172" value="mEmptyLoggerBufferQueueWeak" style="rounded=1;whiteSpace=wrap;html=1;arcSize=41;" parent="uhsKY76aZJEP6ARtSAPS-148" vertex="1">
          <mxGeometry x="20" y="460" width="200" height="40" as="geometry" />
        </mxCell>
        <mxCell id="uhsKY76aZJEP6ARtSAPS-149" value="LoggerFile" style="swimlane;whiteSpace=wrap;html=1;startSize=40;fillColor=#f8cecc;strokeColor=#b85450;" parent="1" vertex="1">
          <mxGeometry x="2080" y="1240" width="240" height="400" as="geometry" />
        </mxCell>
        <mxCell id="uhsKY76aZJEP6ARtSAPS-227" value="createDefaultLogPath()" style="rounded=0;whiteSpace=wrap;html=1;" parent="uhsKY76aZJEP6ARtSAPS-149" vertex="1">
          <mxGeometry x="40" y="80" width="160" height="40" as="geometry" />
        </mxCell>
        <mxCell id="uhsKY76aZJEP6ARtSAPS-228" value="createCustomLogPath()" style="rounded=0;whiteSpace=wrap;html=1;" parent="uhsKY76aZJEP6ARtSAPS-149" vertex="1">
          <mxGeometry x="40" y="140" width="160" height="40" as="geometry" />
        </mxCell>
        <mxCell id="uhsKY76aZJEP6ARtSAPS-229" value="createLogFile()" style="rounded=0;whiteSpace=wrap;html=1;" parent="uhsKY76aZJEP6ARtSAPS-149" vertex="1">
          <mxGeometry x="40" y="200" width="160" height="40" as="geometry" />
        </mxCell>
        <mxCell id="uhsKY76aZJEP6ARtSAPS-230" value="setFileSizeLimite()" style="rounded=0;whiteSpace=wrap;html=1;" parent="uhsKY76aZJEP6ARtSAPS-149" vertex="1">
          <mxGeometry x="40" y="260" width="160" height="40" as="geometry" />
        </mxCell>
        <mxCell id="uhsKY76aZJEP6ARtSAPS-231" value="archive()" style="rounded=0;whiteSpace=wrap;html=1;" parent="uhsKY76aZJEP6ARtSAPS-149" vertex="1">
          <mxGeometry x="40" y="320" width="160" height="40" as="geometry" />
        </mxCell>
        <mxCell id="uhsKY76aZJEP6ARtSAPS-150" value="LoggerBuffer" style="swimlane;whiteSpace=wrap;html=1;startSize=40;fillColor=#fff2cc;strokeColor=#d6b656;" parent="1" vertex="1">
          <mxGeometry x="2680" y="880" width="240" height="300" as="geometry" />
        </mxCell>
        <mxCell id="uhsKY76aZJEP6ARtSAPS-195" value="push()" style="rounded=0;whiteSpace=wrap;html=1;" parent="uhsKY76aZJEP6ARtSAPS-150" vertex="1">
          <mxGeometry x="40" y="80" width="160" height="40" as="geometry" />
        </mxCell>
        <mxCell id="uhsKY76aZJEP6ARtSAPS-196" value="mBuffer" style="rounded=1;whiteSpace=wrap;html=1;arcSize=41;" parent="uhsKY76aZJEP6ARtSAPS-150" vertex="1">
          <mxGeometry x="60" y="220" width="120" height="40" as="geometry" />
        </mxCell>
        <mxCell id="uhsKY76aZJEP6ARtSAPS-197" value="mCapacity" style="rounded=1;whiteSpace=wrap;html=1;arcSize=41;" parent="uhsKY76aZJEP6ARtSAPS-150" vertex="1">
          <mxGeometry x="60" y="160" width="120" height="40" as="geometry" />
        </mxCell>
        <mxCell id="uhsKY76aZJEP6ARtSAPS-174" style="edgeStyle=orthogonalEdgeStyle;rounded=0;orthogonalLoop=1;jettySize=auto;html=1;exitX=1;exitY=0.5;exitDx=0;exitDy=0;entryX=0;entryY=0.5;entryDx=0;entryDy=0;" parent="1" source="uhsKY76aZJEP6ARtSAPS-140" target="uhsKY76aZJEP6ARtSAPS-172" edge="1">
          <mxGeometry relative="1" as="geometry">
            <Array as="points">
              <mxPoint x="1640" y="980" />
              <mxPoint x="1640" y="840" />
            </Array>
          </mxGeometry>
        </mxCell>
        <mxCell id="uhsKY76aZJEP6ARtSAPS-175" style="edgeStyle=orthogonalEdgeStyle;rounded=0;orthogonalLoop=1;jettySize=auto;html=1;exitX=1;exitY=0.5;exitDx=0;exitDy=0;entryX=0;entryY=0.5;entryDx=0;entryDy=0;" parent="1" source="uhsKY76aZJEP6ARtSAPS-139" target="uhsKY76aZJEP6ARtSAPS-171" edge="1">
          <mxGeometry relative="1" as="geometry">
            <Array as="points">
              <mxPoint x="1600" y="920" />
              <mxPoint x="1600" y="780" />
            </Array>
          </mxGeometry>
        </mxCell>
        <mxCell id="uhsKY76aZJEP6ARtSAPS-176" value="SafeQueue&amp;lt;unique_ptr&amp;lt;LoggerBuffer&amp;gt;&amp;gt;" style="rounded=0;whiteSpace=wrap;html=1;" parent="1" vertex="1">
          <mxGeometry x="2280" y="840" width="240" height="60" as="geometry" />
        </mxCell>
        <mxCell id="uhsKY76aZJEP6ARtSAPS-177" style="edgeStyle=orthogonalEdgeStyle;rounded=0;orthogonalLoop=1;jettySize=auto;html=1;exitX=1;exitY=0.5;exitDx=0;exitDy=0;entryX=0;entryY=0.5;entryDx=0;entryDy=0;" parent="1" source="uhsKY76aZJEP6ARtSAPS-172" target="uhsKY76aZJEP6ARtSAPS-176" edge="1">
          <mxGeometry relative="1" as="geometry" />
        </mxCell>
        <mxCell id="uhsKY76aZJEP6ARtSAPS-178" style="edgeStyle=orthogonalEdgeStyle;rounded=0;orthogonalLoop=1;jettySize=auto;html=1;exitX=1;exitY=0.5;exitDx=0;exitDy=0;entryX=0;entryY=0.5;entryDx=0;entryDy=0;" parent="1" source="uhsKY76aZJEP6ARtSAPS-171" target="uhsKY76aZJEP6ARtSAPS-176" edge="1">
          <mxGeometry relative="1" as="geometry" />
        </mxCell>
        <mxCell id="uhsKY76aZJEP6ARtSAPS-182" style="edgeStyle=orthogonalEdgeStyle;rounded=0;orthogonalLoop=1;jettySize=auto;html=1;exitX=1;exitY=0.5;exitDx=0;exitDy=0;fillColor=#fff2cc;strokeColor=#d6b656;" parent="1" source="uhsKY76aZJEP6ARtSAPS-179" target="uhsKY76aZJEP6ARtSAPS-150" edge="1">
          <mxGeometry relative="1" as="geometry" />
        </mxCell>
        <mxCell id="uhsKY76aZJEP6ARtSAPS-179" value="unique_ptr&amp;lt;LoggerBuffer&amp;gt;" style="rounded=0;whiteSpace=wrap;html=1;" parent="1" vertex="1">
          <mxGeometry x="2280" y="740" width="160" height="60" as="geometry" />
        </mxCell>
        <mxCell id="uhsKY76aZJEP6ARtSAPS-180" style="edgeStyle=orthogonalEdgeStyle;rounded=0;orthogonalLoop=1;jettySize=auto;html=1;exitX=1;exitY=0.5;exitDx=0;exitDy=0;entryX=0;entryY=0.5;entryDx=0;entryDy=0;" parent="1" source="uhsKY76aZJEP6ARtSAPS-154" target="uhsKY76aZJEP6ARtSAPS-179" edge="1">
          <mxGeometry relative="1" as="geometry" />
        </mxCell>
        <mxCell id="uhsKY76aZJEP6ARtSAPS-181" style="edgeStyle=orthogonalEdgeStyle;rounded=0;orthogonalLoop=1;jettySize=auto;html=1;exitX=1;exitY=0.5;exitDx=0;exitDy=0;entryX=0;entryY=0.5;entryDx=0;entryDy=0;" parent="1" source="uhsKY76aZJEP6ARtSAPS-170" target="uhsKY76aZJEP6ARtSAPS-179" edge="1">
          <mxGeometry relative="1" as="geometry" />
        </mxCell>
        <mxCell id="uhsKY76aZJEP6ARtSAPS-187" value="mLoggerBufferPtrA-&amp;gt;push()&lt;br&gt;if not success :&lt;br&gt;getEmptyBuffer()&lt;br&gt;mLoggerBufferPtrA.swap(mLoggerBufferPtrB)&lt;br&gt;mLoggerBufferPtrA-&amp;gt;push()&lt;br&gt;mFilledLoggerBufferQueueWeak-&amp;gt;push(mLoggerBufferPtrB)" style="shape=document;whiteSpace=wrap;html=1;boundedLbl=1;fillColor=#dae8fc;strokeColor=#6c8ebf;" parent="1" vertex="1">
          <mxGeometry x="2320" y="390" width="400" height="140" as="geometry" />
        </mxCell>
        <mxCell id="uhsKY76aZJEP6ARtSAPS-188" style="edgeStyle=orthogonalEdgeStyle;rounded=0;orthogonalLoop=1;jettySize=auto;html=1;exitX=1;exitY=0.5;exitDx=0;exitDy=0;entryX=0;entryY=0.5;entryDx=0;entryDy=0;fillColor=#dae8fc;strokeColor=#6c8ebf;" parent="1" source="uhsKY76aZJEP6ARtSAPS-151" target="uhsKY76aZJEP6ARtSAPS-187" edge="1">
          <mxGeometry relative="1" as="geometry" />
        </mxCell>
        <mxCell id="uhsKY76aZJEP6ARtSAPS-189" value="&lt;div&gt;&amp;nbsp;getEmptyBuffer()&lt;/div&gt;&lt;div&gt;&lt;span style=&quot;background-color: initial;&quot;&gt;mLoggerBufferPtrA.swap(mLoggerBufferPtrB)&lt;/span&gt;&lt;/div&gt;&lt;div&gt;&lt;span style=&quot;background-color: initial;&quot;&gt;mFilledLoggerBufferQueueWeak-&amp;gt;push(mLoggerBufferPtrB)&lt;/span&gt;&lt;/div&gt;" style="shape=document;whiteSpace=wrap;html=1;boundedLbl=1;fillColor=#dae8fc;strokeColor=#6c8ebf;" parent="1" vertex="1">
          <mxGeometry x="2320" y="540" width="400" height="80" as="geometry" />
        </mxCell>
        <mxCell id="uhsKY76aZJEP6ARtSAPS-190" style="edgeStyle=orthogonalEdgeStyle;rounded=0;orthogonalLoop=1;jettySize=auto;html=1;exitX=1;exitY=0.5;exitDx=0;exitDy=0;entryX=0;entryY=0.5;entryDx=0;entryDy=0;fillColor=#dae8fc;strokeColor=#6c8ebf;" parent="1" source="uhsKY76aZJEP6ARtSAPS-152" target="uhsKY76aZJEP6ARtSAPS-189" edge="1">
          <mxGeometry relative="1" as="geometry">
            <Array as="points">
              <mxPoint x="2280" y="520" />
              <mxPoint x="2280" y="580" />
            </Array>
          </mxGeometry>
        </mxCell>
        <mxCell id="uhsKY76aZJEP6ARtSAPS-191" value="mEmptyLoggerBufferQueueWeak-&amp;gt;pop(mLoggerBufferPtrB)&lt;br&gt;or make_unique&amp;lt;LoggerBuffer&amp;gt;" style="shape=document;whiteSpace=wrap;html=1;boundedLbl=1;fillColor=#dae8fc;strokeColor=#6c8ebf;" parent="1" vertex="1">
          <mxGeometry x="2360" y="640" width="360" height="70" as="geometry" />
        </mxCell>
        <mxCell id="uhsKY76aZJEP6ARtSAPS-194" style="edgeStyle=orthogonalEdgeStyle;rounded=0;orthogonalLoop=1;jettySize=auto;html=1;exitX=1;exitY=0.5;exitDx=0;exitDy=0;entryX=0;entryY=0.5;entryDx=0;entryDy=0;fillColor=#dae8fc;strokeColor=#6c8ebf;" parent="1" source="uhsKY76aZJEP6ARtSAPS-153" target="uhsKY76aZJEP6ARtSAPS-191" edge="1">
          <mxGeometry relative="1" as="geometry">
            <Array as="points">
              <mxPoint x="2240" y="580" />
              <mxPoint x="2240" y="675" />
            </Array>
          </mxGeometry>
        </mxCell>
        <mxCell id="uhsKY76aZJEP6ARtSAPS-198" value="memcpy to mBuffer&lt;br&gt;return bool according to available size and current size" style="shape=document;whiteSpace=wrap;html=1;boundedLbl=1;fillColor=#dae8fc;strokeColor=#6c8ebf;" parent="1" vertex="1">
          <mxGeometry x="3000" y="940" width="320" height="80" as="geometry" />
        </mxCell>
        <mxCell id="uhsKY76aZJEP6ARtSAPS-199" style="edgeStyle=orthogonalEdgeStyle;rounded=0;orthogonalLoop=1;jettySize=auto;html=1;exitX=1;exitY=0.5;exitDx=0;exitDy=0;entryX=0;entryY=0.5;entryDx=0;entryDy=0;fillColor=#dae8fc;strokeColor=#6c8ebf;" parent="1" source="uhsKY76aZJEP6ARtSAPS-195" target="uhsKY76aZJEP6ARtSAPS-198" edge="1">
          <mxGeometry relative="1" as="geometry" />
        </mxCell>
        <mxCell id="uhsKY76aZJEP6ARtSAPS-186" style="edgeStyle=orthogonalEdgeStyle;rounded=0;orthogonalLoop=1;jettySize=auto;html=1;exitX=0;exitY=0.5;exitDx=0;exitDy=0;fillColor=#e1d5e7;strokeColor=#9673a6;" parent="1" source="uhsKY76aZJEP6ARtSAPS-140" edge="1">
          <mxGeometry relative="1" as="geometry">
            <mxPoint x="641" y="1460" as="targetPoint" />
            <Array as="points">
              <mxPoint x="160" y="980" />
              <mxPoint x="160" y="1400" />
              <mxPoint x="641" y="1400" />
              <mxPoint x="641" y="1450" />
            </Array>
          </mxGeometry>
        </mxCell>
        <mxCell id="uhsKY76aZJEP6ARtSAPS-202" style="edgeStyle=orthogonalEdgeStyle;rounded=0;orthogonalLoop=1;jettySize=auto;html=1;exitX=0;exitY=0.5;exitDx=0;exitDy=0;fillColor=#e1d5e7;strokeColor=#9673a6;" parent="1" source="uhsKY76aZJEP6ARtSAPS-139" edge="1">
          <mxGeometry relative="1" as="geometry">
            <mxPoint x="640.04" y="1922.608695652174" as="targetPoint" />
            <mxPoint x="180.04" y="920" as="sourcePoint" />
            <Array as="points">
              <mxPoint x="80" y="920" />
              <mxPoint x="80" y="2000" />
              <mxPoint x="640" y="2000" />
            </Array>
          </mxGeometry>
        </mxCell>
        <mxCell id="uhsKY76aZJEP6ARtSAPS-206" style="edgeStyle=orthogonalEdgeStyle;rounded=0;orthogonalLoop=1;jettySize=auto;html=1;exitX=0.5;exitY=1;exitDx=0;exitDy=0;entryX=0.5;entryY=0;entryDx=0;entryDy=0;" parent="1" source="uhsKY76aZJEP6ARtSAPS-203" target="uhsKY76aZJEP6ARtSAPS-205" edge="1">
          <mxGeometry relative="1" as="geometry" />
        </mxCell>
        <mxCell id="uhsKY76aZJEP6ARtSAPS-203" value="mFilledLoggerBufferQueuePtr&lt;br&gt;mEmptyLoggerBufferQueuePtr&lt;br&gt;mLoggerLineHashtablePtr&lt;br&gt;mBackgroundThd" style="rounded=0;whiteSpace=wrap;html=1;" parent="1" vertex="1">
          <mxGeometry x="840" y="120" width="200" height="80" as="geometry" />
        </mxCell>
        <mxCell id="uhsKY76aZJEP6ARtSAPS-205" value="work()" style="rounded=0;whiteSpace=wrap;html=1;" parent="1" vertex="1">
          <mxGeometry x="880" y="280" width="120" height="40" as="geometry" />
        </mxCell>
        <mxCell id="uhsKY76aZJEP6ARtSAPS-207" value="bind" style="text;html=1;align=center;verticalAlign=middle;resizable=0;points=[];autosize=1;strokeColor=none;fillColor=none;" parent="1" vertex="1">
          <mxGeometry x="890" y="230" width="50" height="30" as="geometry" />
        </mxCell>
        <mxCell id="uhsKY76aZJEP6ARtSAPS-208" value="initialization" style="text;html=1;align=center;verticalAlign=middle;resizable=0;points=[];autosize=1;strokeColor=none;fillColor=none;" parent="1" vertex="1">
          <mxGeometry x="720" y="128" width="90" height="30" as="geometry" />
        </mxCell>
        <mxCell id="uhsKY76aZJEP6ARtSAPS-209" value="logger file path" style="shape=document;whiteSpace=wrap;html=1;boundedLbl=1;fillColor=#dae8fc;strokeColor=#6c8ebf;" parent="1" vertex="1">
          <mxGeometry x="560" y="190" width="120" height="60" as="geometry" />
        </mxCell>
        <mxCell id="uhsKY76aZJEP6ARtSAPS-210" style="edgeStyle=orthogonalEdgeStyle;rounded=0;orthogonalLoop=1;jettySize=auto;html=1;exitX=1;exitY=0.5;exitDx=0;exitDy=0;entryX=0;entryY=0.5;entryDx=0;entryDy=0;fillColor=#dae8fc;strokeColor=#6c8ebf;" parent="1" source="uhsKY76aZJEP6ARtSAPS-129" target="uhsKY76aZJEP6ARtSAPS-209" edge="1">
          <mxGeometry relative="1" as="geometry" />
        </mxCell>
        <mxCell id="uhsKY76aZJEP6ARtSAPS-211" value="timerPtr, timer seconds, logger file size" style="shape=document;whiteSpace=wrap;html=1;boundedLbl=1;fillColor=#dae8fc;strokeColor=#6c8ebf;" parent="1" vertex="1">
          <mxGeometry x="560" y="270" width="240" height="60" as="geometry" />
        </mxCell>
        <mxCell id="uhsKY76aZJEP6ARtSAPS-212" style="edgeStyle=orthogonalEdgeStyle;rounded=0;orthogonalLoop=1;jettySize=auto;html=1;exitX=1;exitY=0.5;exitDx=0;exitDy=0;entryX=0;entryY=0.5;entryDx=0;entryDy=0;fillColor=#dae8fc;strokeColor=#6c8ebf;" parent="1" source="uhsKY76aZJEP6ARtSAPS-130" target="uhsKY76aZJEP6ARtSAPS-211" edge="1">
          <mxGeometry relative="1" as="geometry">
            <Array as="points">
              <mxPoint x="520" y="280" />
              <mxPoint x="520" y="300" />
            </Array>
          </mxGeometry>
        </mxCell>
        <mxCell id="uhsKY76aZJEP6ARtSAPS-213" value="mLoggerLineHashtablePtr-&amp;gt;insert()" style="shape=document;whiteSpace=wrap;html=1;boundedLbl=1;fillColor=#dae8fc;strokeColor=#6c8ebf;" parent="1" vertex="1">
          <mxGeometry x="560" y="340" width="240" height="60" as="geometry" />
        </mxCell>
        <mxCell id="uhsKY76aZJEP6ARtSAPS-214" style="edgeStyle=orthogonalEdgeStyle;rounded=0;orthogonalLoop=1;jettySize=auto;html=1;exitX=1;exitY=0.5;exitDx=0;exitDy=0;fillColor=#dae8fc;strokeColor=#6c8ebf;" parent="1" source="uhsKY76aZJEP6ARtSAPS-131" target="uhsKY76aZJEP6ARtSAPS-213" edge="1">
          <mxGeometry relative="1" as="geometry">
            <Array as="points">
              <mxPoint x="520" y="340" />
              <mxPoint x="520" y="370" />
            </Array>
          </mxGeometry>
        </mxCell>
        <mxCell id="uhsKY76aZJEP6ARtSAPS-215" value="mLoggerLineHashtablePtr-&amp;gt;find()" style="shape=document;whiteSpace=wrap;html=1;boundedLbl=1;fillColor=#dae8fc;strokeColor=#6c8ebf;" parent="1" vertex="1">
          <mxGeometry x="560" y="410" width="240" height="60" as="geometry" />
        </mxCell>
        <mxCell id="uhsKY76aZJEP6ARtSAPS-217" style="edgeStyle=orthogonalEdgeStyle;rounded=0;orthogonalLoop=1;jettySize=auto;html=1;exitX=1;exitY=0.5;exitDx=0;exitDy=0;entryX=0.5;entryY=0;entryDx=0;entryDy=0;fillColor=#f8cecc;strokeColor=#b85450;" parent="1" source="uhsKY76aZJEP6ARtSAPS-136" target="uhsKY76aZJEP6ARtSAPS-149" edge="1">
          <mxGeometry relative="1" as="geometry">
            <Array as="points">
              <mxPoint x="520" y="740" />
              <mxPoint x="520" y="1000" />
              <mxPoint x="2200" y="1000" />
            </Array>
          </mxGeometry>
        </mxCell>
        <mxCell id="uhsKY76aZJEP6ARtSAPS-218" value="mCurrentLoggerFile.creatLogFile()&lt;br&gt;mCurrentLoggerFile.setFileSizeLimite()" style="shape=document;whiteSpace=wrap;html=1;boundedLbl=1;fillColor=#dae8fc;strokeColor=#6c8ebf;" parent="1" vertex="1">
          <mxGeometry x="560" y="480" width="240" height="60" as="geometry" />
        </mxCell>
        <mxCell id="uhsKY76aZJEP6ARtSAPS-220" value="mFilledLoggerBufferQueuePtr-&amp;gt;waitAndPop()&lt;br&gt;mCurrentLoggerFile.archive()&lt;br&gt;if false:&lt;br&gt;createFile() mCurrentLoggerFile.archive()&lt;br&gt;mEmptyLoggerBufferQueuePtr-&amp;gt;push()" style="shape=document;whiteSpace=wrap;html=1;boundedLbl=1;fillColor=#dae8fc;strokeColor=#6c8ebf;" parent="1" vertex="1">
          <mxGeometry x="560" y="560" width="360" height="120" as="geometry" />
        </mxCell>
        <mxCell id="uhsKY76aZJEP6ARtSAPS-222" style="edgeStyle=orthogonalEdgeStyle;rounded=0;orthogonalLoop=1;jettySize=auto;html=1;exitX=1;exitY=0.5;exitDx=0;exitDy=0;entryX=0;entryY=0.5;entryDx=0;entryDy=0;fillColor=#dae8fc;strokeColor=#6c8ebf;" parent="1" source="uhsKY76aZJEP6ARtSAPS-132" target="uhsKY76aZJEP6ARtSAPS-215" edge="1">
          <mxGeometry relative="1" as="geometry">
            <Array as="points">
              <mxPoint x="520" y="400" />
              <mxPoint x="520" y="440" />
            </Array>
          </mxGeometry>
        </mxCell>
        <mxCell id="uhsKY76aZJEP6ARtSAPS-223" style="edgeStyle=orthogonalEdgeStyle;rounded=0;orthogonalLoop=1;jettySize=auto;html=1;exitX=1;exitY=0.5;exitDx=0;exitDy=0;entryX=0;entryY=0.5;entryDx=0;entryDy=0;fillColor=#dae8fc;strokeColor=#6c8ebf;" parent="1" source="uhsKY76aZJEP6ARtSAPS-133" target="uhsKY76aZJEP6ARtSAPS-218" edge="1">
          <mxGeometry relative="1" as="geometry">
            <Array as="points">
              <mxPoint x="520" y="460" />
              <mxPoint x="520" y="510" />
            </Array>
          </mxGeometry>
        </mxCell>
        <mxCell id="uhsKY76aZJEP6ARtSAPS-224" style="edgeStyle=orthogonalEdgeStyle;rounded=0;orthogonalLoop=1;jettySize=auto;html=1;exitX=1;exitY=0.5;exitDx=0;exitDy=0;entryX=0;entryY=0.5;entryDx=0;entryDy=0;fillColor=#dae8fc;strokeColor=#6c8ebf;" parent="1" source="uhsKY76aZJEP6ARtSAPS-134" target="uhsKY76aZJEP6ARtSAPS-220" edge="1">
          <mxGeometry relative="1" as="geometry">
            <Array as="points">
              <mxPoint x="520" y="520" />
              <mxPoint x="520" y="620" />
            </Array>
          </mxGeometry>
        </mxCell>
        <mxCell id="uhsKY76aZJEP6ARtSAPS-225" value="timeoutPushToFile()&lt;br&gt;archive()" style="shape=document;whiteSpace=wrap;html=1;boundedLbl=1;fillColor=#dae8fc;strokeColor=#6c8ebf;" parent="1" vertex="1">
          <mxGeometry x="600" y="700" width="160" height="60" as="geometry" />
        </mxCell>
        <mxCell id="uhsKY76aZJEP6ARtSAPS-226" style="edgeStyle=orthogonalEdgeStyle;rounded=0;orthogonalLoop=1;jettySize=auto;html=1;exitX=1;exitY=0.5;exitDx=0;exitDy=0;entryX=0;entryY=0.5;entryDx=0;entryDy=0;fillColor=#dae8fc;strokeColor=#6c8ebf;" parent="1" source="uhsKY76aZJEP6ARtSAPS-135" target="uhsKY76aZJEP6ARtSAPS-225" edge="1">
          <mxGeometry relative="1" as="geometry">
            <Array as="points">
              <mxPoint x="460" y="580" />
              <mxPoint x="460" y="730" />
            </Array>
          </mxGeometry>
        </mxCell>
      </root>
    </mxGraphModel>
  </diagram>
</mxfile>
